<svg width="87" height="48" viewBox="0 0 87 48" fill="none" xmlns="http://www.w3.org/2000/svg">
<path d="M26.832 48C25.392 48 23.968 47.584 22.56 46.752C21.184 45.952 19.424 44.704 17.28 43.008C15.68 41.728 14.304 40.688 13.152 39.888C12.032 39.12 10.8 38.464 9.456 37.92C8.144 37.376 6.8 37.104 5.424 37.104C4.944 37.104 4.576 37.12 4.32 37.152L11.472 3.888C9.328 4.752 7.664 6.08 6.48 7.872C5.328 9.632 4.752 11.792 4.752 14.352C4.752 15.536 4.864 16.368 5.088 16.848C5.312 17.296 5.424 17.552 5.424 17.616C3.696 17.616 2.4 17.264 1.536 16.56C0.704 15.824 0.288 14.624 0.288 12.96C0.288 10.912 1.12 8.928 2.784 7.008C4.48 5.056 6.64 3.488 9.264 2.304C11.888 1.088 14.512 0.48 17.136 0.48C17.584 0.48 18.224 0.511999 19.056 0.575998L11.664 35.04C12.56 35.264 13.472 35.584 14.4 36C15.36 36.448 16.512 37.04 17.856 37.776C19.936 38.896 21.712 39.744 23.184 40.32C24.656 40.928 26.192 41.232 27.792 41.232C29.232 41.232 30.576 40.976 31.824 40.464C31.568 42.8 30.992 44.64 30.096 45.984C29.232 47.328 28.144 48 26.832 48ZM25.1955 36.192C22.8275 36.192 20.9555 35.584 19.5795 34.368C18.2035 33.152 17.5155 31.232 17.5155 28.608C17.5155 26.432 17.9635 24.016 18.8595 21.36C19.7555 18.704 21.1955 16.416 23.1795 14.496C25.1635 12.544 27.6595 11.568 30.6675 11.568C34.7635 11.568 36.8115 14.128 36.8115 19.248V19.296C36.9075 19.328 37.0835 19.344 37.3395 19.344C38.3955 19.344 39.6115 19.072 40.9875 18.528C42.3635 17.952 43.6115 17.264 44.7315 16.464L45.1635 17.76C44.2355 18.752 43.0195 19.6 41.5155 20.304C40.0435 20.976 38.4275 21.456 36.6675 21.744C36.4115 24.656 35.7555 27.2 34.6995 29.376C33.6435 31.552 32.2835 33.232 30.6195 34.416C28.9555 35.6 27.1475 36.192 25.1955 36.192ZM27.1155 31.872C27.8835 31.872 28.6515 31.44 29.4195 30.576C30.1875 29.68 30.8595 28.48 31.4355 26.976C32.0115 25.44 32.4275 23.744 32.6835 21.888C31.8195 21.696 31.3875 21.024 31.3875 19.872C31.3875 18.56 31.8835 17.696 32.8755 17.28C32.8115 16.224 32.6515 15.504 32.3955 15.12C32.1395 14.704 31.6915 14.496 31.0515 14.496C29.9955 14.496 28.9715 15.264 27.9795 16.8C26.9875 18.336 26.1875 20.176 25.5795 22.32C24.9715 24.464 24.6675 26.352 24.6675 27.984C24.6675 29.52 24.8435 30.56 25.1955 31.104C25.5475 31.616 26.1875 31.872 27.1155 31.872ZM47.7773 48C46.2413 48 44.9613 47.6 43.9373 46.8C42.9133 46 42.4013 44.848 42.4013 43.344C42.4013 41.52 43.1373 40.048 44.6093 38.928C46.0813 37.84 47.9533 36.928 50.2253 36.192L50.8013 33.648C49.1693 35.408 47.2493 36.288 45.0413 36.288C43.2173 36.288 41.6973 35.664 40.4813 34.416C39.2652 33.168 38.6572 31.216 38.6572 28.56C38.6572 26.192 39.1213 23.712 40.0493 21.12C41.0093 18.496 42.4173 16.288 44.2733 14.496C46.1613 12.672 48.4013 11.76 50.9933 11.76C52.3053 11.76 53.2813 11.984 53.9213 12.432C54.5613 12.88 54.8813 13.472 54.8813 14.208V14.496L55.4093 12H62.3213L57.5693 34.272C59.1053 33.76 60.3373 32.992 61.2653 31.968C62.1933 30.944 62.9773 29.424 63.6173 27.408H65.6333C64.7693 30.256 63.6013 32.352 62.1293 33.696C60.6573 35.008 58.9933 35.904 57.1373 36.384L56.4173 39.84C55.7773 42.944 54.6733 45.072 53.1053 46.224C51.5373 47.408 49.7613 48 47.7773 48ZM48.1613 31.632C48.8973 31.632 49.6493 31.296 50.4173 30.624C51.1853 29.952 51.7133 29.04 52.0013 27.888L54.4493 16.512C54.4493 16.128 54.2893 15.744 53.9693 15.36C53.6493 14.944 53.1533 14.736 52.4813 14.736C51.2013 14.736 50.0493 15.488 49.0253 16.992C48.0013 18.464 47.2013 20.256 46.6253 22.368C46.0493 24.448 45.7613 26.288 45.7613 27.888C45.7613 29.488 45.9853 30.512 46.4333 30.96C46.9133 31.408 47.4893 31.632 48.1613 31.632ZM46.6733 44.256C47.2173 44.256 47.7453 43.888 48.2573 43.152C48.7693 42.416 49.1693 41.36 49.4573 39.984L49.7453 38.592C46.6093 39.744 45.0413 41.104 45.0413 42.672C45.0413 43.088 45.1853 43.456 45.4733 43.776C45.7613 44.096 46.1613 44.256 46.6733 44.256ZM70.6174 36.192C68.2494 36.192 66.3774 35.584 65.0014 34.368C63.6254 33.152 62.9374 31.232 62.9374 28.608C62.9374 26.4 63.3694 23.984 64.2334 21.36C65.0974 18.704 66.5054 16.416 68.4574 14.496C70.4094 12.544 72.9054 11.568 75.9454 11.568C79.7214 11.568 81.7534 13.728 82.0414 18.048C82.7454 17.888 83.3694 17.504 83.9134 16.896C84.4574 16.256 84.9694 15.536 85.4494 14.736H86.9854C86.1214 16.464 85.3534 17.824 84.6814 18.816C84.0094 19.776 83.1294 20.56 82.0414 21.168C81.8494 24.176 81.2254 26.816 80.1694 29.088C79.1454 31.36 77.8014 33.12 76.1374 34.368C74.4734 35.584 72.6334 36.192 70.6174 36.192ZM72.5374 31.872C73.7214 31.872 74.8254 30.912 75.8494 28.992C76.8734 27.072 77.5774 24.704 77.9614 21.888C77.1934 21.6 76.8094 20.88 76.8094 19.728C76.8094 18.48 77.2574 17.648 78.1534 17.232C78.0894 16.208 77.9134 15.504 77.6254 15.12C77.3694 14.704 76.9374 14.496 76.3294 14.496C75.2734 14.496 74.2654 15.264 73.3054 16.8C72.3454 18.304 71.5614 20.144 70.9534 22.32C70.3774 24.464 70.0894 26.352 70.0894 27.984C70.0894 29.52 70.2654 30.56 70.6174 31.104C70.9694 31.616 71.6094 31.872 72.5374 31.872Z" fill="#1E1E1E"/>
</svg>
